<?xml version="1.0" encoding="utf-8"?>
<!-- Generator: Adobe Illustrator 19.2.1, SVG Export Plug-In . SVG Version: 6.00 Build 0)  -->
<svg version="1.1" id="Layer_1" xmlns="http://www.w3.org/2000/svg" xmlns:xlink="http://www.w3.org/1999/xlink" x="0px" y="0px"
	 viewBox="0 0 1440 900" style="enable-background:new 0 0 1440 900;" xml:space="preserve">
<style type="text/css">
	.st0{fill:#81CFE0;}
	.st1{filter:url(#Adobe_OpacityMaskFilter);}
	.st2{fill:url(#XMLID_4_);}
	.st3{mask:url(#XMLID_3_);fill:#3FA3DB;}
	.st4{filter:url(#Adobe_OpacityMaskFilter_1_);}
	.st5{fill:url(#XMLID_8_);}
	.st6{mask:url(#XMLID_7_);fill:#3FA3DB;}
	.st7{filter:url(#Adobe_OpacityMaskFilter_2_);}
	.st8{fill:url(#XMLID_10_);}
	.st9{opacity:0.3;mask:url(#XMLID_9_);fill:#FDFEFF;}
	.st10{filter:url(#Adobe_OpacityMaskFilter_3_);}
	.st11{fill:url(#XMLID_12_);}
	.st12{opacity:0.3;mask:url(#XMLID_11_);fill:#FDFEFF;}
	.st13{filter:url(#Adobe_OpacityMaskFilter_4_);}
	.st14{fill:url(#XMLID_16_);}
	.st15{opacity:0.3;mask:url(#XMLID_15_);fill:#FDFEFF;}
	.st16{filter:url(#Adobe_OpacityMaskFilter_5_);}
	.st17{fill:url(#XMLID_21_);}
	.st18{opacity:0.3;mask:url(#XMLID_20_);fill:#FDFEFF;}
</style>
<g id="XMLID_17_">
	<rect id="XMLID_2416_" class="st0" width="1440" height="900"/>
	<defs>
		<filter id="Adobe_OpacityMaskFilter" filterUnits="userSpaceOnUse" x="0" y="0" width="1440" height="900">
			<feColorMatrix  type="matrix" values="1 0 0 0 0  0 1 0 0 0  0 0 1 0 0  0 0 0 1 0"/>
		</filter>
	</defs>
	<mask maskUnits="userSpaceOnUse" x="0" y="0" width="1440" height="900" id="XMLID_3_">
		<g id="XMLID_5_" class="st1">
			
				<linearGradient id="XMLID_4_" gradientUnits="userSpaceOnUse" x1="719.375" y1="-15482" x2="719.375" y2="-16382" gradientTransform="matrix(1 0 0 -1 0 -15482)">
				<stop  offset="0" style="stop-color:#FFFFFF"/>
				<stop  offset="6.756115e-002" style="stop-color:#B5B3B3"/>
				<stop  offset="0.1416" style="stop-color:#827F7F"/>
				<stop  offset="0.2218" style="stop-color:#5D5A59"/>
				<stop  offset="0.3071" style="stop-color:#42403F"/>
				<stop  offset="0.3991" style="stop-color:#2D2C2C"/>
				<stop  offset="0.5004" style="stop-color:#1D1C1C"/>
				<stop  offset="0.6156" style="stop-color:#0F0F0F"/>
				<stop  offset="0.7569" style="stop-color:#040404"/>
				<stop  offset="1" style="stop-color:#010101"/>
			</linearGradient>
			<rect id="XMLID_6_" x="-0.6" class="st2" width="1440" height="900"/>
		</g>
	</mask>
	<rect id="XMLID_1149_" class="st3" width="1440" height="900"/>
</g>
<defs>
	<filter id="Adobe_OpacityMaskFilter_1_" filterUnits="userSpaceOnUse" x="0.6" y="0" width="1440" height="900">
		<feColorMatrix  type="matrix" values="1 0 0 0 0  0 1 0 0 0  0 0 1 0 0  0 0 0 1 0"/>
	</filter>
</defs>
<mask maskUnits="userSpaceOnUse" x="0.6" y="0" width="1440" height="900" id="XMLID_7_">
	<g id="XMLID_39_" class="st4">
		
			<linearGradient id="XMLID_8_" gradientUnits="userSpaceOnUse" x1="720" y1="-15482" x2="720" y2="-16382" gradientTransform="matrix(1 0 0 -1 0 -15482)">
			<stop  offset="0" style="stop-color:#FFFFFF"/>
			<stop  offset="6.756115e-002" style="stop-color:#B5B3B3"/>
			<stop  offset="0.1416" style="stop-color:#827F7F"/>
			<stop  offset="0.2218" style="stop-color:#5D5A59"/>
			<stop  offset="0.3071" style="stop-color:#42403F"/>
			<stop  offset="0.3991" style="stop-color:#2D2C2C"/>
			<stop  offset="0.5004" style="stop-color:#1D1C1C"/>
			<stop  offset="0.6156" style="stop-color:#0F0F0F"/>
			<stop  offset="0.7569" style="stop-color:#040404"/>
			<stop  offset="1" style="stop-color:#010101"/>
		</linearGradient>
		<rect id="XMLID_40_" class="st5" width="1440" height="900"/>
	</g>
</mask>
<rect id="XMLID_1_" x="0.6" class="st6" width="1440" height="900"/>
<defs>
	<filter id="Adobe_OpacityMaskFilter_2_" filterUnits="userSpaceOnUse" x="59.9" y="190.6" width="562.1" height="109.4">
		<feColorMatrix  type="matrix" values="1 0 0 0 0  0 1 0 0 0  0 0 1 0 0  0 0 0 1 0"/>
	</filter>
</defs>
<mask maskUnits="userSpaceOnUse" x="59.9" y="190.6" width="562.1" height="109.4" id="XMLID_9_">
	<g id="XMLID_27_" class="st7">
		
			<linearGradient id="XMLID_10_" gradientUnits="userSpaceOnUse" x1="340.9659" y1="-15672.6016" x2="340.9659" y2="-15782" gradientTransform="matrix(1 0 0 -1 0 -15482)">
			<stop  offset="0" style="stop-color:#FFFFFF"/>
			<stop  offset="1" style="stop-color:#010101"/>
		</linearGradient>
		<path id="XMLID_28_" class="st8" d="M90,300h532c0,0-31.5-60.5-82.8-60.5c-51.2,0-40.7,25.1-92.5,25.1s-48.3-73.9-105-73.9
			s-56.2,54.7-90.1,54.7S199.2,227,157.4,227s-97.5,73-97.5,73H90z"/>
	</g>
</mask>
<path id="XMLID_2407_" class="st9 cloud" d="M90,300h532c0,0-31.5-60.5-82.8-60.5c-51.2,0-40.7,25.1-92.5,25.1s-48.3-73.9-105-73.9
	s-56.2,54.7-90.1,54.7S199.2,227,157.4,227s-97.5,73-97.5,73H90z"/>
<defs>
	<filter id="Adobe_OpacityMaskFilter_3_" filterUnits="userSpaceOnUse" x="783" y="322.1" width="497.9" height="96.9">
		<feColorMatrix  type="matrix" values="1 0 0 0 0  0 1 0 0 0  0 0 1 0 0  0 0 0 1 0"/>
	</filter>
</defs>
<mask maskUnits="userSpaceOnUse" x="783" y="322.1" width="497.9" height="96.9" id="XMLID_11_">
	<g id="XMLID_22_" class="st10">
		
			<linearGradient id="XMLID_12_" gradientUnits="userSpaceOnUse" x1="1031.9658" y1="-15804.0957" x2="1031.9658" y2="-15901" gradientTransform="matrix(1 0 0 -1 0 -15482)">
			<stop  offset="0" style="stop-color:#FFFFFF"/>
			<stop  offset="1" style="stop-color:#010101"/>
		</linearGradient>
		<path id="XMLID_23_" class="st11" d="M809.7,419h471.2c0,0-27.9-53.6-73.3-53.6c-45.4,0-36,22.2-81.9,22.2s-42.7-65.5-93-65.5
			c-50.3,0-49.8,48.5-79.8,48.5c-30,0-46.5-16.2-83.5-16.2c-37,0-86.4,64.7-86.4,64.7H809.7z"/>
	</g>
</mask>
<path id="XMLID_2404_" class="st12 cloud" d="M809.7,419h471.2c0,0-27.9-53.6-73.3-53.6c-45.4,0-36,22.2-81.9,22.2s-42.7-65.5-93-65.5
	c-50.3,0-49.8,48.5-79.8,48.5c-30,0-46.5-16.2-83.5-16.2c-37,0-86.4,64.7-86.4,64.7H809.7z"/>
<defs>
	<filter id="Adobe_OpacityMaskFilter_4_" filterUnits="userSpaceOnUse" x="924.5" y="159" width="484.9" height="94">
		<feColorMatrix  type="matrix" values="1 0 0 0 0  0 1 0 0 0  0 0 1 0 0  0 0 0 1 0"/>
	</filter>
</defs>
<mask maskUnits="userSpaceOnUse" x="924.5" y="159" width="484.9" height="94" id="XMLID_15_">
	<g id="XMLID_18_" class="st13">
		
			<linearGradient id="XMLID_16_" gradientUnits="userSpaceOnUse" x1="1166.9658" y1="-15641.0449" x2="1166.9658" y2="-15735" gradientTransform="matrix(1 0 0 -1 0 -15482)">
			<stop  offset="0" style="stop-color:#FFFFFF"/>
			<stop  offset="1" style="stop-color:#010101"/>
		</linearGradient>
		<path id="XMLID_19_" class="st14" d="M950.4,253h459c0,0-27.2-52-71.4-52c-44.2,0-35.1,21.7-79.8,21.7
			c-44.7,0-41.6-63.7-90.6-63.7s-48.5,47.2-77.7,47.2s-45.3-16-81.3-16S924.5,253,924.5,253H950.4z"/>
	</g>
</mask>
<path id="XMLID_2401_" class="st15 cloud" d="M950.4,253h459c0,0-27.2-52-71.4-52c-44.2,0-35.1,21.7-79.8,21.7
	c-44.7,0-41.6-63.7-90.6-63.7s-48.5,47.2-77.7,47.2s-45.3-16-81.3-16S924.5,253,924.5,253H950.4z"/>
<defs>
	<filter id="Adobe_OpacityMaskFilter_5_" filterUnits="userSpaceOnUse" x="169.5" y="432" width="484.9" height="94">
		<feColorMatrix  type="matrix" values="1 0 0 0 0  0 1 0 0 0  0 0 1 0 0  0 0 0 1 0"/>
	</filter>
</defs>
<mask maskUnits="userSpaceOnUse" x="169.5" y="432" width="484.9" height="94" id="XMLID_20_">
	<g id="XMLID_13_" class="st16">
		
			<linearGradient id="XMLID_21_" gradientUnits="userSpaceOnUse" x1="411.9659" y1="-15914.0449" x2="411.9659" y2="-16008" gradientTransform="matrix(1 0 0 -1 0 -15482)">
			<stop  offset="0" style="stop-color:#FFFFFF"/>
			<stop  offset="1" style="stop-color:#010101"/>
		</linearGradient>
		<path id="XMLID_14_" class="st17" d="M195.4,526h459c0,0-27.2-52-71.4-52c-44.2,0-35.1,21.7-79.8,21.7S461.6,432,412.7,432
			s-48.5,47.2-77.7,47.2s-45.3-16-81.3-16S169.5,526,169.5,526H195.4z"/>
	</g>
</mask>
<path id="XMLID_2398_" class="st18 cloud" d="M195.4,526h459c0,0-27.2-52-71.4-52c-44.2,0-35.1,21.7-79.8,21.7S461.6,432,412.7,432
	s-48.5,47.2-77.7,47.2s-45.3-16-81.3-16S169.5,526,169.5,526H195.4z"/>
</svg>
