<?xml version="1.0" encoding="utf-8"?>
<!-- Generator: Adobe Illustrator 19.2.1, SVG Export Plug-In . SVG Version: 6.00 Build 0)  -->
<svg version="1.1" id="Layer_1" xmlns="http://www.w3.org/2000/svg" xmlns:xlink="http://www.w3.org/1999/xlink" x="0px" y="0px"
	 viewBox="0 0 1440.6 371.2" style="enable-background:new 0 0 1440.6 371.2;" xml:space="preserve">
<style type="text/css">
	.st0{fill:#FFFFFF;}
	.st1{filter:url(#Adobe_OpacityMaskFilter);}
	.st2{fill:url(#XMLID_49_);}
	.st3{fill:url(#XMLID_101_);}
	.st4{fill:url(#XMLID_102_);}
	.st5{fill:url(#XMLID_103_);}
	.st6{fill:url(#XMLID_112_);}
	.st7{fill:url(#XMLID_113_);}
	.st8{fill:url(#XMLID_114_);}
	.st9{fill:url(#XMLID_115_);}
	.st10{fill:url(#XMLID_116_);}
	.st11{fill:url(#XMLID_117_);}
	.st12{fill:url(#XMLID_118_);}
	.st13{fill:url(#XMLID_119_);}
	.st14{fill:url(#XMLID_120_);}
	.st15{fill:url(#XMLID_121_);}
	.st16{fill:url(#XMLID_122_);}
	.st17{fill:url(#XMLID_123_);}
	.st18{fill:url(#XMLID_124_);}
	.st19{fill:url(#XMLID_125_);}
	.st20{fill:url(#XMLID_126_);}
	.st21{fill:url(#XMLID_127_);}
	.st22{fill:url(#XMLID_128_);}
	.st23{fill:url(#XMLID_129_);}
	.st24{fill:url(#XMLID_130_);}
	.st25{fill:url(#XMLID_131_);}
	.st26{fill:url(#XMLID_132_);}
	.st27{fill:url(#XMLID_133_);}
	.st28{fill:url(#XMLID_134_);}
	.st29{fill:url(#XMLID_135_);}
	.st30{fill:url(#XMLID_136_);}
	.st31{fill:url(#XMLID_137_);}
	.st32{fill:url(#XMLID_138_);}
	.st33{fill:url(#XMLID_139_);}
	.st34{fill:url(#XMLID_140_);}
	.st35{fill:url(#XMLID_141_);}
	.st36{fill:url(#XMLID_142_);}
	.st37{opacity:0.5;mask:url(#XMLID_48_);}
	.st38{fill:#81CFE0;}
	.st39{filter:url(#Adobe_OpacityMaskFilter_1_);}
	.st40{fill:url(#XMLID_144_);}
	.st41{opacity:0.5;mask:url(#XMLID_143_);fill:#81CFE0;}
	.st42{filter:url(#Adobe_OpacityMaskFilter_2_);}
	.st43{fill:url(#XMLID_146_);}
	.st44{opacity:0.5;mask:url(#XMLID_145_);fill:#81CFE0;}
</style>
<g id="XMLID_4_">
	<g id="XMLID_681_">
		<path id="XMLID_1124_" class="st0" d="M1032.8,68.1h-13.4v-9.8H1009v9.8h-9.4h-33.3l-12.1,20.7h6.1v24h39.3l38.2-0.2v-24l7.2,0.2
			L1032.8,68.1z M980.6,101.2h-6.7v-5.8h6.7V101.2z M980.6,94.6h-6.7v-5.8h6.7V94.6z M988.2,101.2h-6.7v-5.8h6.7V101.2z M988.2,94.6
			h-6.7v-5.8h6.7V94.6z M1014.9,101.1h-0.2h-6.3v-5.8h0.2h6.3V101.1z M1014.9,94.6h-6.3h-0.2v-5.9h6.5V89h0V94.6z M1022.7,101.1
			h-6.9v-5.8h6.6h0.1h0.2V101.1z M1022.7,94.6h-0.2h-0.1h-6.6v-5.8h0v-0.1h6.9V94.6z"/>
		<path id="XMLID_1092_" class="st0" d="M88.2,54.7l2.4,53.3h46.2l3.9-53.3H88.2z M120.2,65.5h5.4v4.7h-5.4V65.5z M120.2,70.8h5.4
			v4.7h-5.4V70.8z M120.2,82.1h5.4v4.7h-5.4V82.1z M97.6,65.5h5.4v4.7h-5.4V65.5z M97.6,70.8h5.4v4.7h-5.4V70.8z M97.6,82.1h5.4v4.7
			h-5.4V82.1z M97.6,92.1v-4.7h5.4v4.7H97.6z M109.1,92.1h-5.4v-4.7h5.4V92.1z M109.1,86.8h-5.4v-4.7h5.4V86.8z M109.1,75.5h-5.4
			v-4.7h5.4V75.5z M109.1,70.2h-5.4v-4.7h5.4V70.2z M120.2,92.1v-4.7h5.4v4.7H120.2z M131.7,92.1h-5.4v-4.7h5.4V92.1z M131.7,86.8
			h-5.4v-4.7h5.4V86.8z M131.7,75.5h-5.4v-4.7h5.4V75.5z M131.7,70.2h-5.4v-4.7h5.4V70.2z"/>
		<path id="XMLID_1048_" class="st0" d="M363.1,43.3l4.5-24.8l-10-1.3L356,29.4l-14-27l-30.1,49.9l6.4,51.6h44.6l7-47.6L363.1,43.3z
			 M334.5,75.1l-4.2,0.1l-0.3-6.5l4.3-0.1L334.5,75.1z M329.1,68.7l0.3,6.5l-4.3,0.1l-0.2-6.5L329.1,68.7z M325,76.1l4.3-0.1
			l0.3,6.6l-4.4,0.1L325,76.1z M330.5,82.6l-0.3-6.6l4.2-0.1l0.2,6.6L330.5,82.6z M341.3,45h-4.6v-7.5h4.6V45z M341.3,36.7h-4.6
			v-4.8c0,0,0.8-3.1,4.6-3.4V36.7z M355.4,75.3l-4.6-0.1l0.3-6.5l4.5,0.1L355.4,75.3z M349.9,75.2l-4-0.1l0.2-6.5l4,0.1L349.9,75.2z
			 M342.2,28.5c3.9,0.2,4,3.4,4,3.4v4.8h-4V28.5z M342.2,37.5h4V45h-4V37.5z M345.9,75.8l4,0.1l-0.3,6.6l-4-0.1L345.9,75.8z
			 M350.5,82.6l0.3-6.6l4.6,0.1l-0.2,6.6L350.5,82.6z"/>
		<path id="XMLID_1005_" class="st0" d="M1278.7,40.9l4.5-24.8l-10-1.3l-1.6,12.2l-14-27l-30.1,49.9l6.4,51.6h44.6l7-47.6
			L1278.7,40.9z M1250,72.6l-4.2,0.1l-0.3-6.5l4.3-0.1L1250,72.6z M1244.6,66.3l0.3,6.5l-4.3,0.1l-0.2-6.5L1244.6,66.3z
			 M1240.6,73.7l4.3-0.1l0.3,6.6l-4.4,0.1L1240.6,73.7z M1246.1,80.2l-0.3-6.6l4.2-0.1l0.2,6.6L1246.1,80.2z M1256.8,42.5h-4.6v-7.5
			h4.6V42.5z M1256.8,34.3h-4.6v-4.8c0,0,0.8-3.1,4.6-3.4V34.3z M1271,72.9l-4.6-0.1l0.3-6.5l4.5,0.1L1271,72.9z M1265.5,72.8
			l-4-0.1l0.2-6.5l4,0.1L1265.5,72.8z M1257.8,26c3.9,0.2,4,3.4,4,3.4v4.8h-4V26z M1257.8,35.1h4v7.5h-4V35.1z M1261.5,73.4l4,0.1
			l-0.3,6.6l-4-0.1L1261.5,73.4z M1266.1,80.2l0.3-6.6l4.6,0.1l-0.2,6.6L1266.1,80.2z"/>
		<g id="XMLID_996_">
			<path id="XMLID_998_" class="st0" d="M1318.9,94.6C900.8,125.5,924,109.2,299.1,97.1C233.3,95.8,60.7,109.9,0,114.6l1.8,205.1
				h1438.8V97.1C1395.1,92.7,1365.1,91.2,1318.9,94.6z"/>
		</g>
		<g id="XMLID_965_">
			<polygon id="XMLID_988_" class="st0" points="1347.1,84.4 1342.2,84.4 1342.2,94.5 1347.1,94.5 1350.8,94.5 1350.8,84.4 			"/>
			<g id="XMLID_967_">
				<polygon id="XMLID_983_" class="st0" points="1346.5,53.7 1318.8,87.3 1342,87.3 1346.4,87.3 1374.2,87.3 				"/>
				<polygon id="XMLID_976_" class="st0" points="1346.5,44.1 1323,72.7 1342.7,72.7 1346.4,72.7 1370,72.7 				"/>
				<polygon id="XMLID_971_" class="st0" points="1346.5,35.7 1328.5,57.6 1343.6,57.6 1346.5,57.6 1364.5,57.6 				"/>
				<polygon id="XMLID_968_" class="st0" points="1346.5,27.1 1332.8,43.7 1344.3,43.7 1346.5,43.7 1360.2,43.7 				"/>
			</g>
		</g>
		<g id="XMLID_948_">
			<polygon id="XMLID_962_" class="st0" points="184.1,92.1 179.1,92.1 179.1,102.2 184.1,102.2 187.7,102.2 187.7,92.1 			"/>
			<g id="XMLID_949_">
				<polygon id="XMLID_959_" class="st0" points="183.4,61.4 155.8,95 178.9,95 183.4,95 211.1,95 				"/>
				<polygon id="XMLID_956_" class="st0" points="183.4,51.8 159.9,80.4 179.6,80.4 183.4,80.4 206.9,80.4 				"/>
				<polygon id="XMLID_953_" class="st0" points="183.4,43.4 165.4,65.3 180.5,65.3 183.4,65.3 201.4,65.3 				"/>
				<polygon id="XMLID_950_" class="st0" points="183.4,32.2 169.7,48.8 181.2,48.8 183.4,48.8 197.1,48.8 				"/>
			</g>
		</g>
		<g id="XMLID_931_">
			<polygon id="XMLID_945_" class="st0" points="546.3,99.3 543.8,99.3 543.8,104.4 546.3,104.4 548.1,104.4 548.1,99.3 			"/>
			<g id="XMLID_932_">
				<polygon id="XMLID_942_" class="st0" points="546,84 532.2,100.8 543.7,100.8 546,100.8 559.8,100.8 				"/>
				<polygon id="XMLID_939_" class="st0" points="546,79.2 534.2,93.5 544.1,93.5 546,93.5 557.7,93.5 				"/>
				<polygon id="XMLID_936_" class="st0" points="546,75 537,85.9 544.5,85.9 546,85.9 555,85.9 				"/>
				<polygon id="XMLID_933_" class="st0" points="546,71.2 539.1,79.5 544.9,79.5 546,79.5 552.8,79.5 				"/>
			</g>
		</g>
		<g id="XMLID_914_">
			<polygon id="XMLID_928_" class="st0" points="1182.4,99.2 1180,99.2 1180,104.2 1182.4,104.2 1184.3,104.2 1184.3,99.2 			"/>
			<g id="XMLID_915_">
				<polygon id="XMLID_925_" class="st0" points="1182.1,82.9 1168.3,99.7 1179.9,99.7 1182.1,99.7 1195.9,99.7 				"/>
				<polygon id="XMLID_922_" class="st0" points="1182.1,78.1 1170.4,92.3 1180.2,92.3 1182.1,92.3 1193.9,92.3 				"/>
				<polygon id="XMLID_919_" class="st0" points="1182.1,73.9 1173.1,83.8 1180.7,83.8 1182.1,83.8 1191.1,84.8 				"/>
				<polygon id="XMLID_916_" class="st0" points="1182.1,70.1 1175.3,78.4 1181,78.4 1182.1,78.4 1189,78.4 				"/>
			</g>
		</g>
		<g id="XMLID_897_">
			<polygon id="XMLID_911_" class="st0" points="265.9,92.9 263.4,92.9 263.4,98 263.4,98 267.7,98 267.7,92.9 			"/>
			<g id="XMLID_898_">
				<polygon id="XMLID_908_" class="st0" points="265.5,77.6 251.7,94.4 263.3,94.4 265.5,94.4 279.4,94.4 				"/>
				<polygon id="XMLID_905_" class="st0" points="265.5,72.8 253.8,87.1 263.6,87.1 265.5,87.1 277.3,87.1 				"/>
				<polygon id="XMLID_902_" class="st0" points="265.5,68.6 256.5,79.5 264.1,79.5 265.5,79.5 274.5,79.5 				"/>
				<polygon id="XMLID_899_" class="st0" points="265.5,64.8 258.7,73.1 264.4,73.1 265.5,73.1 272.4,73.1 				"/>
			</g>
		</g>
		<g id="XMLID_685_">
			<polygon id="XMLID_875_" class="st0" points="56.1,105.8 53.6,105.8 53.6,111.1 56.1,111.1 58,111.1 58,105.8 			"/>
			<g id="XMLID_688_">
				<polygon id="XMLID_737_" class="st0" points="55.8,90 41.5,107.4 53.5,107.4 55.8,107.4 70.1,107.4 				"/>
				<polygon id="XMLID_728_" class="st0" points="55.8,85 43.6,99.8 53.8,99.8 55.8,99.8 67.9,99.8 				"/>
				<polygon id="XMLID_721_" class="st0" points="55.8,80.7 46.5,92 54.3,92 55.8,92 65.1,92 				"/>
				<polygon id="XMLID_691_" class="st0" points="55.8,76.8 48.7,85.3 54.6,85.3 55.8,85.3 62.9,85.3 				"/>
			</g>
		</g>
	</g>
	<defs>
		<filter id="Adobe_OpacityMaskFilter" filterUnits="userSpaceOnUse" x="0" y="92.7" width="1442.3" height="227">
			<feColorMatrix  type="matrix" values="1 0 0 0 0  0 1 0 0 0  0 0 1 0 0  0 0 0 1 0"/>
		</filter>
	</defs>
	<mask maskUnits="userSpaceOnUse" x="0" y="92.7" width="1442.3" height="227" id="XMLID_48_">
		<g id="XMLID_19_" class="st1">
			<g id="XMLID_20_">
				
					<linearGradient id="XMLID_49_" gradientUnits="userSpaceOnUse" x1="999.4174" y1="-16068.7764" x2="999.4174" y2="-16123.3447" gradientTransform="matrix(1 0 0 -1 0 -16009.6338)">
					<stop  offset="0" style="stop-color:#FFFFFF"/>
					<stop  offset="2.456653e-002" style="stop-color:#D4D2D2"/>
					<stop  offset="7.497752e-002" style="stop-color:#9C9999"/>
					<stop  offset="0.131" style="stop-color:#716E6E"/>
					<stop  offset="0.1916" style="stop-color:#524F4F"/>
					<stop  offset="0.2579" style="stop-color:#3B3938"/>
					<stop  offset="0.332" style="stop-color:#292827"/>
					<stop  offset="0.4172" style="stop-color:#1A1919"/>
					<stop  offset="0.5205" style="stop-color:#0D0D0D"/>
					<stop  offset="0.6604" style="stop-color:#040404"/>
					<stop  offset="1" style="stop-color:#010101"/>
				</linearGradient>
				<path id="XMLID_179_" class="st2" d="M1032.7,68.9h-13.4v-9.8h-10.4v9.8h-9.4h-33.3L954,89.7h6.1v24h39.3h39.3v-24h6.1
					L1032.7,68.9z M980.4,102h-6.7v-5.8h6.7V102z M980.4,95.4h-6.7v-5.8h6.7V95.4z M988.1,102h-6.7v-5.8h6.7V102z M988.1,95.4h-6.7
					v-5.8h6.7V95.4z M1014.7,101.9h-0.2h-6.3v-5.8h0.2h6.3V101.9z M1014.7,95.4h-6.3h-0.2v-5.9h6.5v0.4h0V95.4z M1022.6,101.9h-6.9
					v-5.8h6.6h0.1h0.2V101.9z M1022.6,95.4h-0.2h-0.1h-6.6v-5.8h0v-0.1h6.9V95.4z"/>
				
					<linearGradient id="XMLID_101_" gradientUnits="userSpaceOnUse" x1="114.3158" y1="-16063.29" x2="114.3158" y2="-16116.625" gradientTransform="matrix(1 0 0 -1 0 -16009.6338)">
					<stop  offset="0" style="stop-color:#FFFFFF"/>
					<stop  offset="2.456653e-002" style="stop-color:#D4D2D2"/>
					<stop  offset="7.497752e-002" style="stop-color:#9C9999"/>
					<stop  offset="0.131" style="stop-color:#716E6E"/>
					<stop  offset="0.1916" style="stop-color:#524F4F"/>
					<stop  offset="0.2579" style="stop-color:#3B3938"/>
					<stop  offset="0.332" style="stop-color:#292827"/>
					<stop  offset="0.4172" style="stop-color:#1A1919"/>
					<stop  offset="0.5205" style="stop-color:#0D0D0D"/>
					<stop  offset="0.6604" style="stop-color:#040404"/>
					<stop  offset="1" style="stop-color:#010101"/>
				</linearGradient>
				<path id="XMLID_161_" class="st3" d="M88,53.7l2.4,53.3h46.2l3.9-53.3H88z M120,64.5h5.4v4.7H120V64.5z M120,69.8h5.4v4.7H120
					V69.8z M120,81.1h5.4v4.7H120V81.1z M97.5,64.5h5.4v4.7h-5.4V64.5z M97.5,69.8h5.4v4.7h-5.4V69.8z M97.5,81.1h5.4v4.7h-5.4V81.1
					z M97.5,91.1v-4.7h5.4v4.7H97.5z M109,91.1h-5.4v-4.7h5.4V91.1z M109,85.8h-5.4v-4.7h5.4V85.8z M109,74.5h-5.4v-4.7h5.4V74.5z
					 M109,69.2h-5.4v-4.7h5.4V69.2z M120,91.1v-4.7h5.4v4.7H120z M131.5,91.1h-5.4v-4.7h5.4V91.1z M131.5,85.8h-5.4v-4.7h5.4V85.8z
					 M131.5,74.5h-5.4v-4.7h5.4V74.5z M131.5,69.2h-5.4v-4.7h5.4V69.2z"/>
				<linearGradient id="XMLID_102_" gradientUnits="userSpaceOnUse" x1="340.6356" y1="2.411" x2="340.6356" y2="103.8853">
					<stop  offset="0" style="stop-color:#FFFFFF"/>
					<stop  offset="2.456653e-002" style="stop-color:#D4D2D2"/>
					<stop  offset="7.497752e-002" style="stop-color:#9C9999"/>
					<stop  offset="0.131" style="stop-color:#716E6E"/>
					<stop  offset="0.1916" style="stop-color:#524F4F"/>
					<stop  offset="0.2579" style="stop-color:#3B3938"/>
					<stop  offset="0.332" style="stop-color:#292827"/>
					<stop  offset="0.4172" style="stop-color:#1A1919"/>
					<stop  offset="0.5205" style="stop-color:#0D0D0D"/>
					<stop  offset="0.6604" style="stop-color:#040404"/>
					<stop  offset="1" style="stop-color:#010101"/>
				</linearGradient>
				<path id="XMLID_100_" class="st4" d="M362.9,43.3l4.5-24.8l-10-1.3l-1.6,12.2l-14-27l-30.1,49.9l6.4,51.6h44.6l7-47.6
					L362.9,43.3z M334.2,75.1l-4.2,0.1l-0.3-6.5l4.3-0.1L334.2,75.1z M328.8,68.7l0.3,6.5l-4.3,0.1l-0.2-6.5L328.8,68.7z
					 M324.8,76.1l4.3-0.1l0.3,6.6l-4.4,0.1L324.8,76.1z M330.3,82.6L330,76l4.2-0.1l0.2,6.6L330.3,82.6z M341,45h-4.6v-7.5h4.6V45z
					 M341,36.7h-4.6v-4.8c0,0,0.8-3.1,4.6-3.4V36.7z M355.1,75.3l-4.6-0.1l0.3-6.5l4.5,0.1L355.1,75.3z M349.7,75.2l-4-0.1l0.2-6.5
					l4,0.1L349.7,75.2z M341.9,28.5c3.9,0.2,4,3.4,4,3.4v4.8h-4V28.5z M341.9,37.5h4V45h-4V37.5z M345.6,75.8l4,0.1l-0.3,6.6l-4-0.1
					L345.6,75.8z M350.3,82.6l0.3-6.6l4.6,0.1l-0.2,6.6L350.3,82.6z"/>
				<linearGradient id="XMLID_103_" gradientUnits="userSpaceOnUse" x1="1257.415" y1="4.820322e-011" x2="1257.415" y2="101.4742">
					<stop  offset="0" style="stop-color:#FFFFFF"/>
					<stop  offset="2.456653e-002" style="stop-color:#D4D2D2"/>
					<stop  offset="7.497752e-002" style="stop-color:#9C9999"/>
					<stop  offset="0.131" style="stop-color:#716E6E"/>
					<stop  offset="0.1916" style="stop-color:#524F4F"/>
					<stop  offset="0.2579" style="stop-color:#3B3938"/>
					<stop  offset="0.332" style="stop-color:#292827"/>
					<stop  offset="0.4172" style="stop-color:#1A1919"/>
					<stop  offset="0.5205" style="stop-color:#0D0D0D"/>
					<stop  offset="0.6604" style="stop-color:#040404"/>
					<stop  offset="1" style="stop-color:#010101"/>
				</linearGradient>
				<path id="XMLID_85_" class="st5" d="M1279.7,40.9l4.5-24.8l-10-1.3l-1.6,12.2l-14-27l-30.1,49.9l6.4,51.6h44.6l7-47.6
					L1279.7,40.9z M1251,72.6l-4.2,0.1l-0.3-6.5l4.3-0.1L1251,72.6z M1245.6,66.3l0.3,6.5l-4.3,0.1l-0.2-6.5L1245.6,66.3z
					 M1241.5,73.7l4.3-0.1l0.3,6.6l-4.4,0.1L1241.5,73.7z M1247,80.2l-0.3-6.6l4.2-0.1l0.2,6.6L1247,80.2z M1257.8,42.5h-4.6v-7.5
					h4.6V42.5z M1257.8,34.3h-4.6v-4.8c0,0,0.8-3.1,4.6-3.4V34.3z M1271.9,72.9l-4.6-0.1l0.3-6.5l4.5,0.1L1271.9,72.9z M1266.4,72.8
					l-4-0.1l0.2-6.5l4,0.1L1266.4,72.8z M1258.7,26c3.9,0.2,4,3.4,4,3.4v4.8h-4V26z M1258.7,35.1h4v7.5h-4V35.1z M1262.4,73.4l4,0.1
					l-0.3,6.6l-4-0.1L1262.4,73.4z M1267.1,80.2l0.3-6.6l4.6,0.1l-0.2,6.6L1267.1,80.2z"/>
				<g id="XMLID_83_">
					
						<linearGradient id="XMLID_112_" gradientUnits="userSpaceOnUse" x1="720.4675" y1="-16100.0908" x2="720.4675" y2="-16327.0615" gradientTransform="matrix(1 0 0 -1 0 -16009.6338)">
						<stop  offset="0" style="stop-color:#FFFFFF"/>
						<stop  offset="2.456653e-002" style="stop-color:#D4D2D2"/>
						<stop  offset="7.497752e-002" style="stop-color:#9C9999"/>
						<stop  offset="0.131" style="stop-color:#716E6E"/>
						<stop  offset="0.1916" style="stop-color:#524F4F"/>
						<stop  offset="0.2579" style="stop-color:#3B3938"/>
						<stop  offset="0.332" style="stop-color:#292827"/>
						<stop  offset="0.4172" style="stop-color:#1A1919"/>
						<stop  offset="0.5205" style="stop-color:#0D0D0D"/>
						<stop  offset="0.6604" style="stop-color:#040404"/>
						<stop  offset="1" style="stop-color:#010101"/>
					</linearGradient>
					<path id="XMLID_84_" class="st6" d="M1318.2,92.3c-418.1,30.9-394.9,14.6-1019.9,2.5C232.5,93.6,61.7,107.4,1,112v205.4h1438.8
						V94.9C1394.3,90.5,1364.4,88.9,1318.2,92.3z"/>
				</g>
				<g id="XMLID_76_">
					<linearGradient id="XMLID_113_" gradientUnits="userSpaceOnUse" x1="1346.3301" y1="81.3511" x2="1346.3301" y2="91.5014">
						<stop  offset="0" style="stop-color:#FFFFFF"/>
						<stop  offset="2.456653e-002" style="stop-color:#D4D2D2"/>
						<stop  offset="7.497752e-002" style="stop-color:#9C9999"/>
						<stop  offset="0.131" style="stop-color:#716E6E"/>
						<stop  offset="0.1916" style="stop-color:#524F4F"/>
						<stop  offset="0.2579" style="stop-color:#3B3938"/>
						<stop  offset="0.332" style="stop-color:#292827"/>
						<stop  offset="0.4172" style="stop-color:#1A1919"/>
						<stop  offset="0.5205" style="stop-color:#0D0D0D"/>
						<stop  offset="0.6604" style="stop-color:#040404"/>
						<stop  offset="1" style="stop-color:#010101"/>
					</linearGradient>
					<polygon id="XMLID_82_" class="st7" points="1347,81.4 1342,81.4 1342,91.5 1347,91.5 1350.6,91.5 1350.6,81.4 					"/>
					<g id="XMLID_77_">
						<linearGradient id="XMLID_114_" gradientUnits="userSpaceOnUse" x1="1346.3335" y1="50.7313" x2="1346.3335" y2="84.3199">
							<stop  offset="0" style="stop-color:#FFFFFF"/>
							<stop  offset="2.456653e-002" style="stop-color:#D4D2D2"/>
							<stop  offset="7.497752e-002" style="stop-color:#9C9999"/>
							<stop  offset="0.131" style="stop-color:#716E6E"/>
							<stop  offset="0.1916" style="stop-color:#524F4F"/>
							<stop  offset="0.2579" style="stop-color:#3B3938"/>
							<stop  offset="0.332" style="stop-color:#292827"/>
							<stop  offset="0.4172" style="stop-color:#1A1919"/>
							<stop  offset="0.5205" style="stop-color:#0D0D0D"/>
							<stop  offset="0.6604" style="stop-color:#040404"/>
							<stop  offset="1" style="stop-color:#010101"/>
						</linearGradient>
						<polygon id="XMLID_81_" class="st8" points="1346.3,50.7 1318.7,84.3 1341.8,84.3 1346.3,84.3 1374,84.3 						"/>
						<linearGradient id="XMLID_115_" gradientUnits="userSpaceOnUse" x1="1346.3301" y1="41.1419" x2="1346.3301" y2="69.6655">
							<stop  offset="0" style="stop-color:#FFFFFF"/>
							<stop  offset="2.456653e-002" style="stop-color:#D4D2D2"/>
							<stop  offset="7.497752e-002" style="stop-color:#9C9999"/>
							<stop  offset="0.131" style="stop-color:#716E6E"/>
							<stop  offset="0.1916" style="stop-color:#524F4F"/>
							<stop  offset="0.2579" style="stop-color:#3B3938"/>
							<stop  offset="0.332" style="stop-color:#292827"/>
							<stop  offset="0.4172" style="stop-color:#1A1919"/>
							<stop  offset="0.5205" style="stop-color:#0D0D0D"/>
							<stop  offset="0.6604" style="stop-color:#040404"/>
							<stop  offset="1" style="stop-color:#010101"/>
						</linearGradient>
						<polygon id="XMLID_80_" class="st9" points="1346.3,41.1 1322.8,69.7 1342.5,69.7 1346.3,69.7 1369.8,69.7 						"/>
						<linearGradient id="XMLID_116_" gradientUnits="userSpaceOnUse" x1="1346.3335" y1="32.7293" x2="1346.3335" y2="54.5685">
							<stop  offset="0" style="stop-color:#FFFFFF"/>
							<stop  offset="2.456653e-002" style="stop-color:#D4D2D2"/>
							<stop  offset="7.497752e-002" style="stop-color:#9C9999"/>
							<stop  offset="0.131" style="stop-color:#716E6E"/>
							<stop  offset="0.1916" style="stop-color:#524F4F"/>
							<stop  offset="0.2579" style="stop-color:#3B3938"/>
							<stop  offset="0.332" style="stop-color:#292827"/>
							<stop  offset="0.4172" style="stop-color:#1A1919"/>
							<stop  offset="0.5205" style="stop-color:#0D0D0D"/>
							<stop  offset="0.6604" style="stop-color:#040404"/>
							<stop  offset="1" style="stop-color:#010101"/>
						</linearGradient>
						<polygon id="XMLID_79_" class="st10" points="1346.3,32.7 1328.3,54.6 1343.4,54.6 1346.3,54.6 1364.3,54.6 						"/>
						<linearGradient id="XMLID_117_" gradientUnits="userSpaceOnUse" x1="1346.3335" y1="25.0941" x2="1346.3335" y2="41.7146">
							<stop  offset="0" style="stop-color:#FFFFFF"/>
							<stop  offset="2.456653e-002" style="stop-color:#D4D2D2"/>
							<stop  offset="7.497752e-002" style="stop-color:#9C9999"/>
							<stop  offset="0.131" style="stop-color:#716E6E"/>
							<stop  offset="0.1916" style="stop-color:#524F4F"/>
							<stop  offset="0.2579" style="stop-color:#3B3938"/>
							<stop  offset="0.332" style="stop-color:#292827"/>
							<stop  offset="0.4172" style="stop-color:#1A1919"/>
							<stop  offset="0.5205" style="stop-color:#0D0D0D"/>
							<stop  offset="0.6604" style="stop-color:#040404"/>
							<stop  offset="1" style="stop-color:#010101"/>
						</linearGradient>
						<polygon id="XMLID_78_" class="st11" points="1346.3,25.1 1332.6,41.7 1344.1,41.7 1346.3,41.7 1360,41.7 						"/>
					</g>
				</g>
				<g id="XMLID_69_">
					<linearGradient id="XMLID_118_" gradientUnits="userSpaceOnUse" x1="183.2626" y1="88.4394" x2="183.2626" y2="98.5896">
						<stop  offset="0" style="stop-color:#FFFFFF"/>
						<stop  offset="2.456653e-002" style="stop-color:#D4D2D2"/>
						<stop  offset="7.497752e-002" style="stop-color:#9C9999"/>
						<stop  offset="0.131" style="stop-color:#716E6E"/>
						<stop  offset="0.1916" style="stop-color:#524F4F"/>
						<stop  offset="0.2579" style="stop-color:#3B3938"/>
						<stop  offset="0.332" style="stop-color:#292827"/>
						<stop  offset="0.4172" style="stop-color:#1A1919"/>
						<stop  offset="0.5205" style="stop-color:#0D0D0D"/>
						<stop  offset="0.6604" style="stop-color:#040404"/>
						<stop  offset="1" style="stop-color:#010101"/>
					</linearGradient>
					<polygon id="XMLID_75_" class="st12" points="183.9,88.4 178.9,88.4 178.9,98.6 183.9,98.6 187.6,98.6 187.6,88.4 					"/>
					<g id="XMLID_70_">
						<linearGradient id="XMLID_119_" gradientUnits="userSpaceOnUse" x1="183.266" y1="57.8196" x2="183.266" y2="91.4081">
							<stop  offset="0" style="stop-color:#FFFFFF"/>
							<stop  offset="2.456653e-002" style="stop-color:#D4D2D2"/>
							<stop  offset="7.497752e-002" style="stop-color:#9C9999"/>
							<stop  offset="0.131" style="stop-color:#716E6E"/>
							<stop  offset="0.1916" style="stop-color:#524F4F"/>
							<stop  offset="0.2579" style="stop-color:#3B3938"/>
							<stop  offset="0.332" style="stop-color:#292827"/>
							<stop  offset="0.4172" style="stop-color:#1A1919"/>
							<stop  offset="0.5205" style="stop-color:#0D0D0D"/>
							<stop  offset="0.6604" style="stop-color:#040404"/>
							<stop  offset="1" style="stop-color:#010101"/>
						</linearGradient>
						<polygon id="XMLID_74_" class="st13" points="183.3,57.8 155.6,91.4 178.8,91.4 183.2,91.4 210.9,91.4 						"/>
						<linearGradient id="XMLID_120_" gradientUnits="userSpaceOnUse" x1="183.2625" y1="48.2301" x2="183.2625" y2="76.7537">
							<stop  offset="0" style="stop-color:#FFFFFF"/>
							<stop  offset="2.456653e-002" style="stop-color:#D4D2D2"/>
							<stop  offset="7.497752e-002" style="stop-color:#9C9999"/>
							<stop  offset="0.131" style="stop-color:#716E6E"/>
							<stop  offset="0.1916" style="stop-color:#524F4F"/>
							<stop  offset="0.2579" style="stop-color:#3B3938"/>
							<stop  offset="0.332" style="stop-color:#292827"/>
							<stop  offset="0.4172" style="stop-color:#1A1919"/>
							<stop  offset="0.5205" style="stop-color:#0D0D0D"/>
							<stop  offset="0.6604" style="stop-color:#040404"/>
							<stop  offset="1" style="stop-color:#010101"/>
						</linearGradient>
						<polygon id="XMLID_73_" class="st14" points="183.3,48.2 159.8,76.8 179.5,76.8 183.2,76.8 206.8,76.8 						"/>
						<linearGradient id="XMLID_121_" gradientUnits="userSpaceOnUse" x1="183.266" y1="39.8175" x2="183.266" y2="61.6567">
							<stop  offset="0" style="stop-color:#FFFFFF"/>
							<stop  offset="2.456653e-002" style="stop-color:#D4D2D2"/>
							<stop  offset="7.497752e-002" style="stop-color:#9C9999"/>
							<stop  offset="0.131" style="stop-color:#716E6E"/>
							<stop  offset="0.1916" style="stop-color:#524F4F"/>
							<stop  offset="0.2579" style="stop-color:#3B3938"/>
							<stop  offset="0.332" style="stop-color:#292827"/>
							<stop  offset="0.4172" style="stop-color:#1A1919"/>
							<stop  offset="0.5205" style="stop-color:#0D0D0D"/>
							<stop  offset="0.6604" style="stop-color:#040404"/>
							<stop  offset="1" style="stop-color:#010101"/>
						</linearGradient>
						<polygon id="XMLID_72_" class="st15" points="183.3,39.8 165.3,61.7 180.4,61.7 183.2,61.7 201.3,61.7 						"/>
						<linearGradient id="XMLID_122_" gradientUnits="userSpaceOnUse" x1="183.266" y1="32.1823" x2="183.266" y2="48.8028">
							<stop  offset="0" style="stop-color:#FFFFFF"/>
							<stop  offset="2.456653e-002" style="stop-color:#D4D2D2"/>
							<stop  offset="7.497752e-002" style="stop-color:#9C9999"/>
							<stop  offset="0.131" style="stop-color:#716E6E"/>
							<stop  offset="0.1916" style="stop-color:#524F4F"/>
							<stop  offset="0.2579" style="stop-color:#3B3938"/>
							<stop  offset="0.332" style="stop-color:#292827"/>
							<stop  offset="0.4172" style="stop-color:#1A1919"/>
							<stop  offset="0.5205" style="stop-color:#0D0D0D"/>
							<stop  offset="0.6604" style="stop-color:#040404"/>
							<stop  offset="1" style="stop-color:#010101"/>
						</linearGradient>
						<polygon id="XMLID_71_" class="st16" points="183.3,32.2 169.6,48.8 181,48.8 183.2,48.8 197,48.8 						"/>
					</g>
				</g>
				<g id="XMLID_62_">
					<linearGradient id="XMLID_123_" gradientUnits="userSpaceOnUse" x1="547.4023" y1="96.9559" x2="547.4023" y2="102.0253">
						<stop  offset="0" style="stop-color:#FFFFFF"/>
						<stop  offset="2.456653e-002" style="stop-color:#D4D2D2"/>
						<stop  offset="7.497752e-002" style="stop-color:#9C9999"/>
						<stop  offset="0.131" style="stop-color:#716E6E"/>
						<stop  offset="0.1916" style="stop-color:#524F4F"/>
						<stop  offset="0.2579" style="stop-color:#3B3938"/>
						<stop  offset="0.332" style="stop-color:#292827"/>
						<stop  offset="0.4172" style="stop-color:#1A1919"/>
						<stop  offset="0.5205" style="stop-color:#0D0D0D"/>
						<stop  offset="0.6604" style="stop-color:#040404"/>
						<stop  offset="1" style="stop-color:#010101"/>
					</linearGradient>
					<polygon id="XMLID_68_" class="st17" points="547.7,97 545.2,97 545.2,102 547.7,102 549.6,102 549.6,97 					"/>
					<g id="XMLID_63_">
						<linearGradient id="XMLID_124_" gradientUnits="userSpaceOnUse" x1="547.4041" y1="81.6632" x2="547.4041" y2="98.4386">
							<stop  offset="0" style="stop-color:#FFFFFF"/>
							<stop  offset="2.456653e-002" style="stop-color:#D4D2D2"/>
							<stop  offset="7.497752e-002" style="stop-color:#9C9999"/>
							<stop  offset="0.131" style="stop-color:#716E6E"/>
							<stop  offset="0.1916" style="stop-color:#524F4F"/>
							<stop  offset="0.2579" style="stop-color:#3B3938"/>
							<stop  offset="0.332" style="stop-color:#292827"/>
							<stop  offset="0.4172" style="stop-color:#1A1919"/>
							<stop  offset="0.5205" style="stop-color:#0D0D0D"/>
							<stop  offset="0.6604" style="stop-color:#040404"/>
							<stop  offset="1" style="stop-color:#010101"/>
						</linearGradient>
						<polygon id="XMLID_67_" class="st18" points="547.4,81.7 533.6,98.4 545.2,98.4 547.4,98.4 561.2,98.4 						"/>
						<linearGradient id="XMLID_125_" gradientUnits="userSpaceOnUse" x1="547.4023" y1="76.8739" x2="547.4023" y2="91.1197">
							<stop  offset="0" style="stop-color:#FFFFFF"/>
							<stop  offset="2.456653e-002" style="stop-color:#D4D2D2"/>
							<stop  offset="7.497752e-002" style="stop-color:#9C9999"/>
							<stop  offset="0.131" style="stop-color:#716E6E"/>
							<stop  offset="0.1916" style="stop-color:#524F4F"/>
							<stop  offset="0.2579" style="stop-color:#3B3938"/>
							<stop  offset="0.332" style="stop-color:#292827"/>
							<stop  offset="0.4172" style="stop-color:#1A1919"/>
							<stop  offset="0.5205" style="stop-color:#0D0D0D"/>
							<stop  offset="0.6604" style="stop-color:#040404"/>
							<stop  offset="1" style="stop-color:#010101"/>
						</linearGradient>
						<polygon id="XMLID_66_" class="st19" points="547.4,76.9 535.7,91.1 545.5,91.1 547.4,91.1 559.1,91.1 						"/>
						<linearGradient id="XMLID_126_" gradientUnits="userSpaceOnUse" x1="547.4041" y1="72.6723" x2="547.4041" y2="83.5797">
							<stop  offset="0" style="stop-color:#FFFFFF"/>
							<stop  offset="2.456653e-002" style="stop-color:#D4D2D2"/>
							<stop  offset="7.497752e-002" style="stop-color:#9C9999"/>
							<stop  offset="0.131" style="stop-color:#716E6E"/>
							<stop  offset="0.1916" style="stop-color:#524F4F"/>
							<stop  offset="0.2579" style="stop-color:#3B3938"/>
							<stop  offset="0.332" style="stop-color:#292827"/>
							<stop  offset="0.4172" style="stop-color:#1A1919"/>
							<stop  offset="0.5205" style="stop-color:#0D0D0D"/>
							<stop  offset="0.6604" style="stop-color:#040404"/>
							<stop  offset="1" style="stop-color:#010101"/>
						</linearGradient>
						<polygon id="XMLID_65_" class="st20" points="547.4,72.7 538.4,83.6 545.9,83.6 547.4,83.6 556.4,83.6 						"/>
						<linearGradient id="XMLID_127_" gradientUnits="userSpaceOnUse" x1="547.4041" y1="68.859" x2="547.4041" y2="77.1599">
							<stop  offset="0" style="stop-color:#FFFFFF"/>
							<stop  offset="2.456653e-002" style="stop-color:#D4D2D2"/>
							<stop  offset="7.497752e-002" style="stop-color:#9C9999"/>
							<stop  offset="0.131" style="stop-color:#716E6E"/>
							<stop  offset="0.1916" style="stop-color:#524F4F"/>
							<stop  offset="0.2579" style="stop-color:#3B3938"/>
							<stop  offset="0.332" style="stop-color:#292827"/>
							<stop  offset="0.4172" style="stop-color:#1A1919"/>
							<stop  offset="0.5205" style="stop-color:#0D0D0D"/>
							<stop  offset="0.6604" style="stop-color:#040404"/>
							<stop  offset="1" style="stop-color:#010101"/>
						</linearGradient>
						<polygon id="XMLID_64_" class="st21" points="547.4,68.9 540.6,77.2 546.3,77.2 547.4,77.2 554.2,77.2 						"/>
					</g>
				</g>
				<g id="XMLID_55_">
					<linearGradient id="XMLID_128_" gradientUnits="userSpaceOnUse" x1="1183.9288" y1="97.1988" x2="1183.9288" y2="102.2682">
						<stop  offset="0" style="stop-color:#FFFFFF"/>
						<stop  offset="2.456653e-002" style="stop-color:#D4D2D2"/>
						<stop  offset="7.497752e-002" style="stop-color:#9C9999"/>
						<stop  offset="0.131" style="stop-color:#716E6E"/>
						<stop  offset="0.1916" style="stop-color:#524F4F"/>
						<stop  offset="0.2579" style="stop-color:#3B3938"/>
						<stop  offset="0.332" style="stop-color:#292827"/>
						<stop  offset="0.4172" style="stop-color:#1A1919"/>
						<stop  offset="0.5205" style="stop-color:#0D0D0D"/>
						<stop  offset="0.6604" style="stop-color:#040404"/>
						<stop  offset="1" style="stop-color:#010101"/>
					</linearGradient>
					<polygon id="XMLID_61_" class="st22" points="1184.3,97.2 1181.8,97.2 1181.8,102.3 1184.3,102.3 1186.1,102.3 1186.1,97.2 
											"/>
					<g id="XMLID_56_">
						<linearGradient id="XMLID_129_" gradientUnits="userSpaceOnUse" x1="1183.9305" y1="81.9061" x2="1183.9305" y2="98.6815">
							<stop  offset="0" style="stop-color:#FFFFFF"/>
							<stop  offset="2.456653e-002" style="stop-color:#D4D2D2"/>
							<stop  offset="7.497752e-002" style="stop-color:#9C9999"/>
							<stop  offset="0.131" style="stop-color:#716E6E"/>
							<stop  offset="0.1916" style="stop-color:#524F4F"/>
							<stop  offset="0.2579" style="stop-color:#3B3938"/>
							<stop  offset="0.332" style="stop-color:#292827"/>
							<stop  offset="0.4172" style="stop-color:#1A1919"/>
							<stop  offset="0.5205" style="stop-color:#0D0D0D"/>
							<stop  offset="0.6604" style="stop-color:#040404"/>
							<stop  offset="1" style="stop-color:#010101"/>
						</linearGradient>
						<polygon id="XMLID_60_" class="st23" points="1183.9,81.9 1170.1,98.7 1181.7,98.7 1183.9,98.7 1197.8,98.7 						"/>
						<linearGradient id="XMLID_130_" gradientUnits="userSpaceOnUse" x1="1183.9288" y1="77.1168" x2="1183.9288" y2="91.3626">
							<stop  offset="0" style="stop-color:#FFFFFF"/>
							<stop  offset="2.456653e-002" style="stop-color:#D4D2D2"/>
							<stop  offset="7.497752e-002" style="stop-color:#9C9999"/>
							<stop  offset="0.131" style="stop-color:#716E6E"/>
							<stop  offset="0.1916" style="stop-color:#524F4F"/>
							<stop  offset="0.2579" style="stop-color:#3B3938"/>
							<stop  offset="0.332" style="stop-color:#292827"/>
							<stop  offset="0.4172" style="stop-color:#1A1919"/>
							<stop  offset="0.5205" style="stop-color:#0D0D0D"/>
							<stop  offset="0.6604" style="stop-color:#040404"/>
							<stop  offset="1" style="stop-color:#010101"/>
						</linearGradient>
						<polygon id="XMLID_59_" class="st24" points="1183.9,77.1 1172.2,91.4 1182,91.4 1183.9,91.4 1195.7,91.4 						"/>
						<linearGradient id="XMLID_131_" gradientUnits="userSpaceOnUse" x1="1183.9305" y1="72.9152" x2="1183.9305" y2="83.8226">
							<stop  offset="0" style="stop-color:#FFFFFF"/>
							<stop  offset="2.456653e-002" style="stop-color:#D4D2D2"/>
							<stop  offset="7.497752e-002" style="stop-color:#9C9999"/>
							<stop  offset="0.131" style="stop-color:#716E6E"/>
							<stop  offset="0.1916" style="stop-color:#524F4F"/>
							<stop  offset="0.2579" style="stop-color:#3B3938"/>
							<stop  offset="0.332" style="stop-color:#292827"/>
							<stop  offset="0.4172" style="stop-color:#1A1919"/>
							<stop  offset="0.5205" style="stop-color:#0D0D0D"/>
							<stop  offset="0.6604" style="stop-color:#040404"/>
							<stop  offset="1" style="stop-color:#010101"/>
						</linearGradient>
						<polygon id="XMLID_58_" class="st25" points="1183.9,72.9 1174.9,83.8 1182.5,83.8 1183.9,83.8 1192.9,83.8 						"/>
						<linearGradient id="XMLID_132_" gradientUnits="userSpaceOnUse" x1="1183.9305" y1="69.1019" x2="1183.9305" y2="77.4028">
							<stop  offset="0" style="stop-color:#FFFFFF"/>
							<stop  offset="2.456653e-002" style="stop-color:#D4D2D2"/>
							<stop  offset="7.497752e-002" style="stop-color:#9C9999"/>
							<stop  offset="0.131" style="stop-color:#716E6E"/>
							<stop  offset="0.1916" style="stop-color:#524F4F"/>
							<stop  offset="0.2579" style="stop-color:#3B3938"/>
							<stop  offset="0.332" style="stop-color:#292827"/>
							<stop  offset="0.4172" style="stop-color:#1A1919"/>
							<stop  offset="0.5205" style="stop-color:#0D0D0D"/>
							<stop  offset="0.6604" style="stop-color:#040404"/>
							<stop  offset="1" style="stop-color:#010101"/>
						</linearGradient>
						<polygon id="XMLID_57_" class="st26" points="1183.9,69.1 1177.1,77.4 1182.8,77.4 1183.9,77.4 1190.8,77.4 						"/>
					</g>
				</g>
				<g id="XMLID_46_">
					<linearGradient id="XMLID_133_" gradientUnits="userSpaceOnUse" x1="266.528" y1="91.5213" x2="266.528" y2="96.5907">
						<stop  offset="0" style="stop-color:#FFFFFF"/>
						<stop  offset="2.456653e-002" style="stop-color:#D4D2D2"/>
						<stop  offset="7.497752e-002" style="stop-color:#9C9999"/>
						<stop  offset="0.131" style="stop-color:#716E6E"/>
						<stop  offset="0.1916" style="stop-color:#524F4F"/>
						<stop  offset="0.2579" style="stop-color:#3B3938"/>
						<stop  offset="0.332" style="stop-color:#292827"/>
						<stop  offset="0.4172" style="stop-color:#1A1919"/>
						<stop  offset="0.5205" style="stop-color:#0D0D0D"/>
						<stop  offset="0.6604" style="stop-color:#040404"/>
						<stop  offset="1" style="stop-color:#010101"/>
					</linearGradient>
					<polygon id="XMLID_54_" class="st27" points="266.9,91.5 264.4,91.5 264.4,96.6 266.9,96.6 268.7,96.6 268.7,91.5 					"/>
					<g id="XMLID_47_">
						<linearGradient id="XMLID_134_" gradientUnits="userSpaceOnUse" x1="266.5298" y1="76.2286" x2="266.5298" y2="93.004">
							<stop  offset="0" style="stop-color:#FFFFFF"/>
							<stop  offset="2.456653e-002" style="stop-color:#D4D2D2"/>
							<stop  offset="7.497752e-002" style="stop-color:#9C9999"/>
							<stop  offset="0.131" style="stop-color:#716E6E"/>
							<stop  offset="0.1916" style="stop-color:#524F4F"/>
							<stop  offset="0.2579" style="stop-color:#3B3938"/>
							<stop  offset="0.332" style="stop-color:#292827"/>
							<stop  offset="0.4172" style="stop-color:#1A1919"/>
							<stop  offset="0.5205" style="stop-color:#0D0D0D"/>
							<stop  offset="0.6604" style="stop-color:#040404"/>
							<stop  offset="1" style="stop-color:#010101"/>
						</linearGradient>
						<polygon id="XMLID_53_" class="st28" points="266.5,76.2 252.7,93 264.3,93 266.5,93 280.4,93 						"/>
						<linearGradient id="XMLID_135_" gradientUnits="userSpaceOnUse" x1="266.528" y1="71.4393" x2="266.528" y2="85.6851">
							<stop  offset="0" style="stop-color:#FFFFFF"/>
							<stop  offset="2.456653e-002" style="stop-color:#D4D2D2"/>
							<stop  offset="7.497752e-002" style="stop-color:#9C9999"/>
							<stop  offset="0.131" style="stop-color:#716E6E"/>
							<stop  offset="0.1916" style="stop-color:#524F4F"/>
							<stop  offset="0.2579" style="stop-color:#3B3938"/>
							<stop  offset="0.332" style="stop-color:#292827"/>
							<stop  offset="0.4172" style="stop-color:#1A1919"/>
							<stop  offset="0.5205" style="stop-color:#0D0D0D"/>
							<stop  offset="0.6604" style="stop-color:#040404"/>
							<stop  offset="1" style="stop-color:#010101"/>
						</linearGradient>
						<polygon id="XMLID_52_" class="st29" points="266.5,71.4 254.8,85.7 264.6,85.7 266.5,85.7 278.3,85.7 						"/>
						<linearGradient id="XMLID_136_" gradientUnits="userSpaceOnUse" x1="266.5298" y1="67.2377" x2="266.5298" y2="78.1451">
							<stop  offset="0" style="stop-color:#FFFFFF"/>
							<stop  offset="2.456653e-002" style="stop-color:#D4D2D2"/>
							<stop  offset="7.497752e-002" style="stop-color:#9C9999"/>
							<stop  offset="0.131" style="stop-color:#716E6E"/>
							<stop  offset="0.1916" style="stop-color:#524F4F"/>
							<stop  offset="0.2579" style="stop-color:#3B3938"/>
							<stop  offset="0.332" style="stop-color:#292827"/>
							<stop  offset="0.4172" style="stop-color:#1A1919"/>
							<stop  offset="0.5205" style="stop-color:#0D0D0D"/>
							<stop  offset="0.6604" style="stop-color:#040404"/>
							<stop  offset="1" style="stop-color:#010101"/>
						</linearGradient>
						<polygon id="XMLID_51_" class="st30" points="266.5,67.2 257.5,78.1 265.1,78.1 266.5,78.1 275.5,78.1 						"/>
						<linearGradient id="XMLID_137_" gradientUnits="userSpaceOnUse" x1="266.5298" y1="63.4244" x2="266.5298" y2="71.7253">
							<stop  offset="0" style="stop-color:#FFFFFF"/>
							<stop  offset="2.456653e-002" style="stop-color:#D4D2D2"/>
							<stop  offset="7.497752e-002" style="stop-color:#9C9999"/>
							<stop  offset="0.131" style="stop-color:#716E6E"/>
							<stop  offset="0.1916" style="stop-color:#524F4F"/>
							<stop  offset="0.2579" style="stop-color:#3B3938"/>
							<stop  offset="0.332" style="stop-color:#292827"/>
							<stop  offset="0.4172" style="stop-color:#1A1919"/>
							<stop  offset="0.5205" style="stop-color:#0D0D0D"/>
							<stop  offset="0.6604" style="stop-color:#040404"/>
							<stop  offset="1" style="stop-color:#010101"/>
						</linearGradient>
						<polygon id="XMLID_50_" class="st31" points="266.5,63.4 259.7,71.7 265.4,71.7 266.5,71.7 273.4,71.7 						"/>
					</g>
				</g>
				<g id="XMLID_21_">
					<linearGradient id="XMLID_138_" gradientUnits="userSpaceOnUse" x1="55.631" y1="103.5725" x2="55.631" y2="108.817">
						<stop  offset="0" style="stop-color:#FFFFFF"/>
						<stop  offset="2.456653e-002" style="stop-color:#D4D2D2"/>
						<stop  offset="7.497752e-002" style="stop-color:#9C9999"/>
						<stop  offset="0.131" style="stop-color:#716E6E"/>
						<stop  offset="0.1916" style="stop-color:#524F4F"/>
						<stop  offset="0.2579" style="stop-color:#3B3938"/>
						<stop  offset="0.332" style="stop-color:#292827"/>
						<stop  offset="0.4172" style="stop-color:#1A1919"/>
						<stop  offset="0.5205" style="stop-color:#0D0D0D"/>
						<stop  offset="0.6604" style="stop-color:#040404"/>
						<stop  offset="1" style="stop-color:#010101"/>
					</linearGradient>
					<polygon id="XMLID_45_" class="st32" points="56,103.6 53.4,103.6 53.4,108.8 56,108.8 57.9,108.8 57.9,103.6 					"/>
					<g id="XMLID_22_">
						<linearGradient id="XMLID_139_" gradientUnits="userSpaceOnUse" x1="55.6327" y1="87.7517" x2="55.6327" y2="105.1065">
							<stop  offset="0" style="stop-color:#FFFFFF"/>
							<stop  offset="2.456653e-002" style="stop-color:#D4D2D2"/>
							<stop  offset="7.497752e-002" style="stop-color:#9C9999"/>
							<stop  offset="0.131" style="stop-color:#716E6E"/>
							<stop  offset="0.1916" style="stop-color:#524F4F"/>
							<stop  offset="0.2579" style="stop-color:#3B3938"/>
							<stop  offset="0.332" style="stop-color:#292827"/>
							<stop  offset="0.4172" style="stop-color:#1A1919"/>
							<stop  offset="0.5205" style="stop-color:#0D0D0D"/>
							<stop  offset="0.6604" style="stop-color:#040404"/>
							<stop  offset="1" style="stop-color:#010101"/>
						</linearGradient>
						<polygon id="XMLID_42_" class="st33" points="55.6,87.8 41.3,105.1 53.3,105.1 55.6,105.1 69.9,105.1 						"/>
						<linearGradient id="XMLID_140_" gradientUnits="userSpaceOnUse" x1="55.6309" y1="82.797" x2="55.6309" y2="97.5348">
							<stop  offset="0" style="stop-color:#FFFFFF"/>
							<stop  offset="2.456653e-002" style="stop-color:#D4D2D2"/>
							<stop  offset="7.497752e-002" style="stop-color:#9C9999"/>
							<stop  offset="0.131" style="stop-color:#716E6E"/>
							<stop  offset="0.1916" style="stop-color:#524F4F"/>
							<stop  offset="0.2579" style="stop-color:#3B3938"/>
							<stop  offset="0.332" style="stop-color:#292827"/>
							<stop  offset="0.4172" style="stop-color:#1A1919"/>
							<stop  offset="0.5205" style="stop-color:#0D0D0D"/>
							<stop  offset="0.6604" style="stop-color:#040404"/>
							<stop  offset="1" style="stop-color:#010101"/>
						</linearGradient>
						<polygon id="XMLID_40_" class="st34" points="55.6,82.8 43.5,97.5 53.7,97.5 55.6,97.5 67.8,97.5 						"/>
						<linearGradient id="XMLID_141_" gradientUnits="userSpaceOnUse" x1="55.6327" y1="78.4503" x2="55.6327" y2="89.7344">
							<stop  offset="0" style="stop-color:#FFFFFF"/>
							<stop  offset="2.456653e-002" style="stop-color:#D4D2D2"/>
							<stop  offset="7.497752e-002" style="stop-color:#9C9999"/>
							<stop  offset="0.131" style="stop-color:#716E6E"/>
							<stop  offset="0.1916" style="stop-color:#524F4F"/>
							<stop  offset="0.2579" style="stop-color:#3B3938"/>
							<stop  offset="0.332" style="stop-color:#292827"/>
							<stop  offset="0.4172" style="stop-color:#1A1919"/>
							<stop  offset="0.5205" style="stop-color:#0D0D0D"/>
							<stop  offset="0.6604" style="stop-color:#040404"/>
							<stop  offset="1" style="stop-color:#010101"/>
						</linearGradient>
						<polygon id="XMLID_39_" class="st35" points="55.6,78.5 46.3,89.7 54.1,89.7 55.6,89.7 64.9,89.7 						"/>
						<linearGradient id="XMLID_142_" gradientUnits="userSpaceOnUse" x1="55.6327" y1="74.5053" x2="55.6327" y2="83.0929">
							<stop  offset="0" style="stop-color:#FFFFFF"/>
							<stop  offset="2.456653e-002" style="stop-color:#D4D2D2"/>
							<stop  offset="7.497752e-002" style="stop-color:#9C9999"/>
							<stop  offset="0.131" style="stop-color:#716E6E"/>
							<stop  offset="0.1916" style="stop-color:#524F4F"/>
							<stop  offset="0.2579" style="stop-color:#3B3938"/>
							<stop  offset="0.332" style="stop-color:#292827"/>
							<stop  offset="0.4172" style="stop-color:#1A1919"/>
							<stop  offset="0.5205" style="stop-color:#0D0D0D"/>
							<stop  offset="0.6604" style="stop-color:#040404"/>
							<stop  offset="1" style="stop-color:#010101"/>
						</linearGradient>
						<polygon id="XMLID_23_" class="st36" points="55.6,74.5 48.6,83.1 54.5,83.1 55.6,83.1 62.7,83.1 						"/>
					</g>
				</g>
			</g>
		</g>
	</mask>
	<g id="XMLID_1275_" class="st37">
		<g id="XMLID_1903_">
			<path id="XMLID_1904_" class="st38" d="M1320.6,94.6c-418.1,30.9-394.9,14.6-1019.9,2.5c-65.8-1.3-240,12.8-300.7,17.4l3.4,205.1
				h1438.8V97.1C1396.7,92.7,1366.8,91.2,1320.6,94.6z"/>
		</g>
		<g id="XMLID_1834_">
		</g>
	</g>
</g>
<defs>
	<filter id="Adobe_OpacityMaskFilter_1_" filterUnits="userSpaceOnUse" x="0" y="140.5" width="1444.3" height="230.7">
		<feColorMatrix  type="matrix" values="1 0 0 0 0  0 1 0 0 0  0 0 1 0 0  0 0 0 1 0"/>
	</filter>
</defs>
<mask maskUnits="userSpaceOnUse" x="0" y="140.5" width="1444.3" height="230.7" id="XMLID_143_">
	<g id="XMLID_13_" class="st39">
		
			<linearGradient id="XMLID_144_" gradientUnits="userSpaceOnUse" x1="722.3333" y1="-16380.8174" x2="722.3333" y2="-16150.127" gradientTransform="matrix(1 0 0 -1 0 -16009.6338)">
			<stop  offset="0" style="stop-color:#FFFFFF"/>
			<stop  offset="6.186312e-002" style="stop-color:#BDBBBA"/>
			<stop  offset="0.1408" style="stop-color:#878484"/>
			<stop  offset="0.2257" style="stop-color:#605D5C"/>
			<stop  offset="0.3154" style="stop-color:#444141"/>
			<stop  offset="0.4114" style="stop-color:#2E2D2D"/>
			<stop  offset="0.5159" style="stop-color:#1D1D1D"/>
			<stop  offset="0.6332" style="stop-color:#0F0F0F"/>
			<stop  offset="0.7737" style="stop-color:#040404"/>
			<stop  offset="1" style="stop-color:#010101"/>
		</linearGradient>
		<path id="XMLID_14_" class="st40" d="M0,177.5c0,0,154.6-46.3,321-35.3c148.4,9.8,233.9,62.1,311.1,67.8
			c87.9,6.5,298.4-10.5,367.5-16.5s219.8-28.9,281.3-42.2c61.5-13.3,163.8-9,163.8-9l-4.7,229H0L0,177.5z"/>
	</g>
</mask>
<path id="XMLID_387_" class="st41" d="M0,177.5c0,0,154.6-46.3,321-35.3c148.4,9.8,233.9,62.1,311.1,67.8
	c87.9,6.5,298.4-10.5,367.5-16.5s219.8-28.9,281.3-42.2c61.5-13.3,163.4-8,163.4-8l-4.3,228H0L0,177.5z"/>
<defs>
	<filter id="Adobe_OpacityMaskFilter_2_" filterUnits="userSpaceOnUse" x="0" y="245.6" width="1440.6" height="64.7">
		<feColorMatrix  type="matrix" values="1 0 0 0 0  0 1 0 0 0  0 0 1 0 0  0 0 0 1 0"/>
	</filter>
</defs>
<mask maskUnits="userSpaceOnUse" x="0" y="245.6" width="1440.6" height="64.7" id="XMLID_145_">
	<g id="XMLID_5_" class="st42">
		
			<linearGradient id="XMLID_146_" gradientUnits="userSpaceOnUse" x1="720.3125" y1="-16319.8887" x2="720.3125" y2="-16255.2109" gradientTransform="matrix(1 0 0 -1 0 -16009.6338)">
			<stop  offset="0" style="stop-color:#FFFFFF"/>
			<stop  offset="9.285697e-002" style="stop-color:#E8E7E6"/>
			<stop  offset="0.2531" style="stop-color:#BFBDBD"/>
			<stop  offset="0.4615" style="stop-color:#888585"/>
			<stop  offset="0.7101" style="stop-color:#4B4948"/>
			<stop  offset="0.9898" style="stop-color:#050505"/>
			<stop  offset="1" style="stop-color:#010101"/>
		</linearGradient>
		<path id="XMLID_6_" class="st43" d="M1.2,257.7c68.9-16.5,130.8-13.8,169.5-5.6c62.1,13.2,103.6,25.2,126.5,32.6
			c16.4,5.3,33.4,8.6,50.6,10.2c46.1,4.1,133.7,11,155.2,7c29.6-5.4,248.8-31.7,338.9-29.7c58.2,1.3,110.3,14.7,169.7,22.5
			c59.4,7.8,185.5,11.3,227.9,3.5s113.4-15.6,151.4-14.9c38,0.7,49.6,0.7,49.6,0.7l-0.6,26.2L0,310.3L1.2,257.7z"/>
	</g>
</mask>
<path id="XMLID_96_" class="st44" d="M1.2,257.7c68.9-16.5,130.8-13.8,169.5-5.6c62.1,13.2,103.6,25.2,126.5,32.6
	c16.4,5.3,33.4,8.6,50.6,10.2c46.1,4.1,133.7,11,155.2,7c29.6-5.4,248.8-31.7,338.9-29.7c58.2,1.3,110.3,14.7,169.7,22.5
	c59.4,7.8,185.5,11.3,227.9,3.5s113.4-15.6,151.4-14.9c38,0.7,49.6,0.7,49.6,0.7l-0.6,26.2L0,310.3L1.2,257.7z"/>
</svg>
